<svg width="24" height="24" viewBox="0 0 24 24" fill="none" xmlns="http://www.w3.org/2000/svg">
  <circle cx="12" cy="12" r="12" fill="#e56a52"/>
  <path d="M5.5 9.5C5.5 8.7 6.2 8 7 8H11C12.4 8 13.5 9.1 13.5 10.5V13.5C13.5 14.3 12.8 15 12 15H8C6.6 15 5.5 13.9 5.5 12.5V9.5Z" fill="white"/>
  <path fill-rule="evenodd" clip-rule="evenodd" d="M17.8 15.2L16.2 14.2C15.9 14 15.8 13.7 15.8 13.4V10.6C15.8 10.3 15.9 10 16.2 9.8L17.8 8.8C18.2 8.5 18.7 8.5 19 8.8C19.2 8.9 19.3 9.1 19.3 9.3V14.7C19.3 15.1 19 15.4 18.6 15.4C18.4 15.4 18.2 15.3 18 15.2L17.8 15.2Z" fill="white"/>
</svg>
